<?xml version="1.0" encoding="utf-8" standalone="no"?>
<!DOCTYPE svg PUBLIC "-//W3C//DTD SVG 1.1//EN"
  "http://www.w3.org/Graphics/SVG/1.1/DTD/svg11.dtd">
<svg xmlns:xlink="http://www.w3.org/1999/xlink" width="964.8pt" height="532.8pt" viewBox="0 0 964.8 532.8" xmlns="http://www.w3.org/2000/svg" version="1.1">
 <metadata>
  <rdf:RDF xmlns:dc="http://purl.org/dc/elements/1.1/" xmlns:cc="http://creativecommons.org/ns#" xmlns:rdf="http://www.w3.org/1999/02/22-rdf-syntax-ns#">
   <cc:Work>
    <dc:type rdf:resource="http://purl.org/dc/dcmitype/StillImage"/>
    <dc:date>2026-09-15T23:33:40.442337</dc:date>
    <dc:format>image/svg+xml</dc:format>
    <dc:creator>
     <cc:Agent>
      <dc:title>Matplotlib v3.10.0, https://matplotlib.org/</dc:title>
     </cc:Agent>
    </dc:creator>
   </cc:Work>
  </rdf:RDF>
 </metadata>
 <defs>
  <style type="text/css">*{stroke-linejoin: round; stroke-linecap: butt}</style>
 </defs>
 <g id="figure_1">
  <g id="patch_1">
   <path d="M 0 532.8 
L 964.8 532.8 
L 964.8 0 
L 0 0 
z
" style="fill: #ffffff"/>
  </g>
  <g id="axes_1">
   <g id="patch_2">
    <path d="M 72.36 340.992 
L 457.414709 340.992 
L 457.414709 103.896 
L 72.36 103.896 
z
" style="fill: #ffffff"/>
   </g>
   <g id="matplotlib.axis_1">
    <g id="xtick_1">
     <g id="line2d_1">
      <defs>
       <path id="mb24050fa32" d="M 0 0 
L 0 3 
" style="stroke: #52616b; stroke-width: 0.8"/>
      </defs>
      <g>
       <use xlink:href="#mb24050fa32" x="72.36" y="340.992" style="fill: #52616b; stroke: #52616b; stroke-width: 0.8"/>
      </g>
     </g>
     <g id="text_1">
      <text style="font-size: 10.5px; font-family: 'DejaVu Sans'; text-anchor: middle; fill: #52616b" x="72.36" y="355.470359" transform="rotate(-0 72.36 355.470359)">0</text>
     </g>
    </g>
    <g id="xtick_2">
     <g id="line2d_2">
      <g>
       <use xlink:href="#mb24050fa32" x="157.927713" y="340.992" style="fill: #52616b; stroke: #52616b; stroke-width: 0.8"/>
      </g>
     </g>
     <g id="text_2">
      <text style="font-size: 10.5px; font-family: 'DejaVu Sans'; text-anchor: middle; fill: #52616b" x="157.927713" y="355.470359" transform="rotate(-0 157.927713 355.470359)">4,000</text>
     </g>
    </g>
    <g id="xtick_3">
     <g id="line2d_3">
      <g>
       <use xlink:href="#mb24050fa32" x="243.495426" y="340.992" style="fill: #52616b; stroke: #52616b; stroke-width: 0.8"/>
      </g>
     </g>
     <g id="text_3">
      <text style="font-size: 10.5px; font-family: 'DejaVu Sans'; text-anchor: middle; fill: #52616b" x="243.495426" y="355.470359" transform="rotate(-0 243.495426 355.470359)">8,000</text>
     </g>
    </g>
    <g id="xtick_4">
     <g id="line2d_4">
      <g>
       <use xlink:href="#mb24050fa32" x="329.063139" y="340.992" style="fill: #52616b; stroke: #52616b; stroke-width: 0.8"/>
      </g>
     </g>
     <g id="text_4">
      <text style="font-size: 10.5px; font-family: 'DejaVu Sans'; text-anchor: middle; fill: #52616b" x="329.063139" y="355.470359" transform="rotate(-0 329.063139 355.470359)">12,000</text>
     </g>
    </g>
    <g id="xtick_5">
     <g id="line2d_5">
      <g>
       <use xlink:href="#mb24050fa32" x="414.630852" y="340.992" style="fill: #52616b; stroke: #52616b; stroke-width: 0.8"/>
      </g>
     </g>
     <g id="text_5">
      <text style="font-size: 10.5px; font-family: 'DejaVu Sans'; text-anchor: middle; fill: #52616b" x="414.630852" y="355.470359" transform="rotate(-0 414.630852 355.470359)">16,000</text>
     </g>
    </g>
    <g id="text_6">
     <text style="font-size: 10.5px; font-family: 'DejaVu Sans'; text-anchor: middle; fill: #293b46" x="264.887354" y="374.632391" transform="rotate(-0 264.887354 374.632391)">Optimizer updates</text>
    </g>
   </g>
   <g id="matplotlib.axis_2">
    <g id="ytick_1">
     <g id="line2d_6">
      <path d="M 72.36 330.214909 
L 457.414709 330.214909 
" clip-path="url(#pf0e8687a6e)" style="fill: none; stroke: #e2e8ec; stroke-width: 0.8; stroke-linecap: square"/>
     </g>
     <g id="line2d_7">
      <defs>
       <path id="m4503fea85f" d="M 0 0 
L -3 0 
" style="stroke: #52616b; stroke-width: 0.8"/>
      </defs>
      <g>
       <use xlink:href="#m4503fea85f" x="72.36" y="330.214909" style="fill: #52616b; stroke: #52616b; stroke-width: 0.8"/>
      </g>
     </g>
     <g id="text_7">
      <text style="font-size: 10.5px; font-family: 'DejaVu Sans'; text-anchor: end; fill: #52616b" x="65.86" y="334.204089" transform="rotate(-0 65.86 334.204089)">3</text>
     </g>
    </g>
    <g id="ytick_2">
     <g id="line2d_8">
      <path d="M 72.36 276.329455 
L 457.414709 276.329455 
" clip-path="url(#pf0e8687a6e)" style="fill: none; stroke: #e2e8ec; stroke-width: 0.8; stroke-linecap: square"/>
     </g>
     <g id="line2d_9">
      <g>
       <use xlink:href="#m4503fea85f" x="72.36" y="276.329455" style="fill: #52616b; stroke: #52616b; stroke-width: 0.8"/>
      </g>
     </g>
     <g id="text_8">
      <text style="font-size: 10.5px; font-family: 'DejaVu Sans'; text-anchor: end; fill: #52616b" x="65.86" y="280.318634" transform="rotate(-0 65.86 280.318634)">4</text>
     </g>
    </g>
    <g id="ytick_3">
     <g id="line2d_10">
      <path d="M 72.36 222.444 
L 457.414709 222.444 
" clip-path="url(#pf0e8687a6e)" style="fill: none; stroke: #e2e8ec; stroke-width: 0.8; stroke-linecap: square"/>
     </g>
     <g id="line2d_11">
      <g>
       <use xlink:href="#m4503fea85f" x="72.36" y="222.444" style="fill: #52616b; stroke: #52616b; stroke-width: 0.8"/>
      </g>
     </g>
     <g id="text_9">
      <text style="font-size: 10.5px; font-family: 'DejaVu Sans'; text-anchor: end; fill: #52616b" x="65.86" y="226.43318" transform="rotate(-0 65.86 226.43318)">5</text>
     </g>
    </g>
    <g id="ytick_4">
     <g id="line2d_12">
      <path d="M 72.36 168.558545 
L 457.414709 168.558545 
" clip-path="url(#pf0e8687a6e)" style="fill: none; stroke: #e2e8ec; stroke-width: 0.8; stroke-linecap: square"/>
     </g>
     <g id="line2d_13">
      <g>
       <use xlink:href="#m4503fea85f" x="72.36" y="168.558545" style="fill: #52616b; stroke: #52616b; stroke-width: 0.8"/>
      </g>
     </g>
     <g id="text_10">
      <text style="font-size: 10.5px; font-family: 'DejaVu Sans'; text-anchor: end; fill: #52616b" x="65.86" y="172.547725" transform="rotate(-0 65.86 172.547725)">6</text>
     </g>
    </g>
    <g id="ytick_5">
     <g id="line2d_14">
      <path d="M 72.36 114.673091 
L 457.414709 114.673091 
" clip-path="url(#pf0e8687a6e)" style="fill: none; stroke: #e2e8ec; stroke-width: 0.8; stroke-linecap: square"/>
     </g>
     <g id="line2d_15">
      <g>
       <use xlink:href="#m4503fea85f" x="72.36" y="114.673091" style="fill: #52616b; stroke: #52616b; stroke-width: 0.8"/>
      </g>
     </g>
     <g id="text_11">
      <text style="font-size: 10.5px; font-family: 'DejaVu Sans'; text-anchor: end; fill: #52616b" x="65.86" y="118.662271" transform="rotate(-0 65.86 118.662271)">7</text>
     </g>
    </g>
    <g id="text_12">
     <text style="font-size: 10.5px; font-family: 'DejaVu Sans'; text-anchor: middle; fill: #293b46" x="52.995703" y="222.444" transform="rotate(-90 52.995703 222.444)">Cross-entropy (nats)</text>
    </g>
   </g>
   <g id="line2d_16">
    <path d="M 431.744395 340.992 
L 431.744395 103.896 
" clip-path="url(#pf0e8687a6e)" style="fill: none; stroke-dasharray: 3,3; stroke-dashoffset: 0; stroke: #16718b; stroke-opacity: 0.65"/>
   </g>
   <g id="line2d_17">
    <path d="M 444.579552 340.992 
L 444.579552 103.896 
" clip-path="url(#pf0e8687a6e)" style="fill: none; stroke-dasharray: 3,3; stroke-dashoffset: 0; stroke: #c35b35; stroke-opacity: 0.65"/>
   </g>
   <g id="patch_3">
    <path d="M 72.36 340.992 
L 72.36 103.896 
" style="fill: none; stroke: #84929a; stroke-width: 0.8; stroke-linejoin: miter; stroke-linecap: square"/>
   </g>
   <g id="patch_4">
    <path d="M 72.36 340.992 
L 457.414709 340.992 
" style="fill: none; stroke: #84929a; stroke-width: 0.8; stroke-linejoin: miter; stroke-linecap: square"/>
   </g>
   <g id="line2d_18">
    <path d="M 72.36 117.48528 
L 74.499193 178.208534 
L 76.638386 184.522875 
L 78.777578 197.814941 
L 80.916771 203.105662 
L 83.055964 203.166213 
L 85.195157 212.740693 
L 87.33435 219.34451 
L 89.473543 224.218173 
L 91.612735 230.302838 
L 93.751928 235.828654 
L 95.891121 237.628181 
L 97.944746 244.438786 
L 98.030314 244.290232 
L 100.169507 247.228178 
L 102.3087 250.535575 
L 104.447892 254.604122 
L 106.587085 257.826211 
L 108.726278 260.384142 
L 110.865471 263.885063 
L 113.004664 266.435534 
L 115.143857 269.603225 
L 117.283049 272.019393 
L 119.422242 275.587679 
L 121.561435 278.896058 
L 123.700628 278.277633 
L 125.839821 281.912105 
L 127.979013 278.747807 
L 130.118206 284.316673 
L 132.257399 286.24592 
L 134.396592 287.719 
L 136.535785 288.874774 
L 138.674978 287.63264 
L 140.81417 291.368616 
L 142.953363 292.568665 
L 145.092556 292.909849 
L 147.231749 294.90887 
L 149.092847 295.829852 
L 149.370942 297.327204 
L 151.510135 297.16655 
L 153.649327 296.091276 
L 155.78852 297.784476 
L 157.927713 298.502158 
L 160.066906 293.42815 
L 162.206099 300.790001 
L 164.345291 300.802598 
L 166.484484 301.38348 
L 168.623677 300.513968 
L 170.76287 302.721989 
L 172.902063 304.472898 
L 174.677593 304.096033 
L 175.041256 304.997859 
L 177.180448 305.069163 
L 179.319641 304.593358 
L 181.458834 306.679947 
L 183.598027 305.527435 
L 185.73722 306.758126 
L 187.876413 305.704927 
L 190.015605 308.296725 
L 192.154798 307.825786 
L 194.293991 308.018919 
L 196.433184 308.747691 
L 198.572377 308.511012 
L 200.71157 309.431711 
L 202.850762 309.080222 
L 204.989955 309.230444 
L 207.129148 309.836132 
L 209.268341 310.298216 
L 211.407534 312.093273 
L 213.546726 312.40735 
L 215.685919 311.077836 
L 217.825112 310.55364 
L 219.964305 312.104854 
L 222.103498 312.641653 
L 224.242691 314.569015 
L 225.804301 315.722136 
L 226.381883 315.44409 
L 228.521076 314.885619 
L 230.660269 314.654594 
L 232.799462 314.234443 
L 234.938655 314.252229 
L 237.077848 315.140795 
L 239.21704 315.09324 
L 241.356233 316.286523 
L 243.495426 316.776985 
L 245.634619 315.759036 
L 247.773812 317.357888 
L 249.913004 317.465978 
L 251.431831 317.091515 
L 252.052197 317.862355 
L 254.19139 318.429015 
L 256.330583 316.035344 
L 258.469776 316.944094 
L 260.608969 318.191223 
L 262.748161 317.417929 
L 264.887354 317.708335 
L 267.026547 317.208566 
L 269.16574 318.575164 
L 271.304933 317.321462 
L 273.444126 319.605559 
L 275.583318 319.662098 
L 276.93101 320.220259 
L 277.722511 320.247713 
L 279.861704 319.983304 
L 282.000897 320.180868 
L 284.14009 319.446409 
L 286.279283 319.818763 
L 288.418475 320.896168 
L 290.557668 318.860119 
L 292.696861 319.227612 
L 294.836054 320.333837 
L 296.975247 320.787221 
L 299.114439 321.01139 
L 301.253632 321.036787 
L 302.6655 321.60164 
L 303.392825 320.485888 
L 305.532018 321.18565 
L 307.671211 320.810329 
L 309.810404 321.188037 
L 311.949596 320.712084 
L 314.088789 321.038354 
L 316.227982 321.749893 
L 318.367175 321.755896 
L 320.506368 320.912072 
L 322.645561 321.603026 
L 324.784753 323.220001 
L 326.923946 322.685298 
L 328.357205 322.615025 
L 329.063139 321.983867 
L 331.202332 322.519177 
L 333.341525 321.107613 
L 335.480717 321.627527 
L 337.61991 322.003116 
L 339.759103 322.495956 
L 344.037489 322.767069 
L 346.176682 323.494678 
L 348.315874 323.20461 
L 350.455067 323.175712 
L 352.59426 323.36218 
L 353.899168 323.89252 
L 354.733453 323.634204 
L 356.872646 322.480129 
L 359.011839 322.776707 
L 361.151031 323.255833 
L 363.290224 322.687216 
L 365.429417 324.107792 
L 367.56861 323.844751 
L 369.707803 322.362144 
L 371.846996 322.705223 
L 373.986188 323.660995 
L 376.125381 323.250368 
L 379.462522 323.969996 
L 380.403767 324.383999 
L 382.54296 323.60455 
L 384.682152 323.624971 
L 386.821345 323.268499 
L 388.960538 321.292303 
L 391.099731 323.631942 
L 393.238924 323.689613 
L 395.378117 324.400127 
L 397.517309 324.049517 
L 399.656502 323.89439 
L 405.047268 324.640439 
L 408.213274 323.773763 
L 410.352466 324.121539 
L 412.491659 323.109464 
L 414.630852 323.879482 
L 416.770045 323.984977 
L 418.909238 323.328605 
L 421.04843 323.908233 
L 423.187623 323.473393 
L 425.326816 323.97875 
L 427.466009 325.165568 
L 429.605202 324.120118 
L 430.824542 324.616762 
L 431.744395 324.365657 
L 431.744395 324.365657 
" clip-path="url(#pf0e8687a6e)" style="fill: none; stroke: #16718b; stroke-opacity: 0.96; stroke-width: 1.8; stroke-linecap: square"/>
   </g>
   <g id="line2d_19">
    <path d="M 72.36 117.40989 
L 74.499193 177.876683 
L 76.638386 188.509973 
L 78.777578 191.45885 
L 80.916771 195.303243 
L 83.055964 200.081634 
L 85.195157 204.464913 
L 87.33435 209.961674 
L 89.473543 216.202989 
L 91.612735 221.521458 
L 93.751928 227.584703 
L 95.891121 230.276454 
L 98.030314 235.578345 
L 100.169507 238.953927 
L 104.447892 247.255008 
L 108.726278 252.737901 
L 110.865471 255.623175 
L 113.004664 258.976797 
L 115.143857 260.935444 
L 117.283049 264.153169 
L 119.422242 265.067878 
L 121.561435 269.123035 
L 123.465317 269.155621 
L 123.700628 269.814368 
L 125.839821 272.440764 
L 127.979013 273.441847 
L 130.118206 274.997356 
L 132.257399 276.995168 
L 134.396592 278.643728 
L 136.535785 278.151202 
L 138.674978 281.155471 
L 140.81417 283.577598 
L 142.953363 282.76896 
L 145.092556 284.124484 
L 147.231749 286.624021 
L 149.092847 288.070673 
L 149.370942 288.820592 
L 151.510135 289.150734 
L 153.649327 288.050088 
L 155.78852 289.28043 
L 157.927713 290.366649 
L 160.066906 291.979778 
L 164.345291 293.348689 
L 166.484484 292.776195 
L 168.623677 294.654365 
L 170.76287 295.462547 
L 172.902063 296.809388 
L 174.677593 296.643953 
L 175.041256 297.074443 
L 177.180448 297.974642 
L 179.319641 298.02351 
L 181.458834 299.206578 
L 183.598027 299.540754 
L 185.73722 298.787457 
L 187.876413 298.572555 
L 190.015605 300.428771 
L 192.154798 301.630317 
L 194.293991 301.633239 
L 196.433184 302.435066 
L 198.572377 302.439226 
L 200.240947 303.537497 
L 200.71157 303.324391 
L 202.850762 303.038053 
L 204.989955 303.287973 
L 207.129148 304.501707 
L 209.268341 303.108492 
L 211.407534 302.227008 
L 213.546726 304.746252 
L 215.685919 305.754283 
L 217.825112 305.393488 
L 219.964305 305.848858 
L 222.103498 307.529302 
L 224.242691 307.705868 
L 225.804301 308.912086 
L 228.521076 309.073104 
L 230.660269 308.232998 
L 232.799462 308.186884 
L 234.938655 308.835588 
L 237.077848 310.130038 
L 239.21704 309.533607 
L 241.356233 310.018636 
L 243.495426 311.231298 
L 245.634619 309.977694 
L 247.773812 311.096309 
L 249.913004 312.072181 
L 251.431831 311.813615 
L 252.052197 312.309801 
L 254.19139 312.475202 
L 256.330583 311.1222 
L 258.469776 311.714559 
L 260.608969 312.800176 
L 262.748161 311.945719 
L 264.887354 312.084098 
L 267.026547 312.056548 
L 269.16574 313.215067 
L 271.304933 312.127341 
L 273.444126 314.802946 
L 275.583318 314.894555 
L 277.722511 315.285995 
L 279.861704 315.351935 
L 282.000897 314.580466 
L 284.14009 315.438831 
L 286.279283 315.254496 
L 288.418475 315.877878 
L 290.557668 315.163622 
L 292.696861 314.985953 
L 294.836054 315.661911 
L 296.975247 316.463068 
L 299.114439 316.367456 
L 301.253632 316.889019 
L 302.6655 316.699418 
L 303.392825 316.382565 
L 307.671211 316.218487 
L 309.810404 316.053098 
L 311.949596 317.416463 
L 314.088789 317.288871 
L 316.227982 317.71835 
L 318.367175 317.27879 
L 322.645561 317.479106 
L 324.784753 318.772565 
L 326.923946 318.676648 
L 328.357205 319.100396 
L 329.063139 318.096597 
L 331.202332 317.936926 
L 333.341525 317.597709 
L 335.480717 317.538785 
L 339.759103 319.251206 
L 341.898296 319.621482 
L 344.037489 319.162082 
L 346.176682 320.027572 
L 348.315874 319.578219 
L 350.455067 319.75215 
L 352.59426 319.7607 
L 353.899168 320.036377 
L 354.733453 320.366535 
L 356.872646 318.808246 
L 359.011839 319.326245 
L 361.151031 320.17792 
L 363.290224 319.434485 
L 365.429417 320.714873 
L 367.56861 320.882446 
L 369.707803 320.047592 
L 373.986188 320.472346 
L 376.125381 319.878135 
L 379.462522 320.531587 
L 380.403767 321.328054 
L 382.54296 320.541959 
L 384.682152 320.562655 
L 386.821345 320.700247 
L 388.960538 319.124681 
L 391.099731 320.692859 
L 395.378117 321.132856 
L 397.517309 321.497408 
L 399.656502 321.471085 
L 401.795695 321.120772 
L 403.934888 321.751888 
L 405.047268 321.714316 
L 406.074081 321.243016 
L 408.213274 320.896846 
L 410.352466 321.647542 
L 412.491659 320.245977 
L 414.630852 321.083041 
L 416.770045 321.752939 
L 418.909238 320.780009 
L 421.04843 321.624656 
L 423.187623 321.682786 
L 425.326816 321.604684 
L 427.466009 322.797362 
L 429.605202 322.060776 
L 433.883587 322.119093 
L 436.02278 321.447913 
L 438.161973 321.079586 
L 440.301166 320.314834 
L 442.440359 320.262426 
L 444.579552 321.727022 
L 444.579552 321.727022 
" clip-path="url(#pf0e8687a6e)" style="fill: none; stroke: #c35b35; stroke-opacity: 0.96; stroke-width: 1.8; stroke-linecap: square"/>
   </g>
   <g id="text_13">
    <text style="font-weight: 600; font-size: 12px; font-family: 'DejaVu Sans'; text-anchor: start; fill: #263945" x="72.36" y="90.896" transform="rotate(-0 72.36 90.896)">Cross-entropy ↓</text>
   </g>
   <g id="PathCollection_1">
    <defs>
     <path id="mdcf9a26a49" d="M 0 2.397916 
C 0.635935 2.397916 1.245909 2.145256 1.695582 1.695582 
C 2.145256 1.245909 2.397916 0.635935 2.397916 0 
C 2.397916 -0.635935 2.145256 -1.245909 1.695582 -1.695582 
C 1.245909 -2.145256 0.635935 -2.397916 0 -2.397916 
C -0.635935 -2.397916 -1.245909 -2.145256 -1.695582 -1.695582 
C -2.145256 -1.245909 -2.397916 -0.635935 -2.397916 0 
C -2.397916 0.635935 -2.145256 1.245909 -1.695582 1.695582 
C -1.245909 2.145256 -0.635935 2.397916 0 2.397916 
z
" style="stroke: #16718b; stroke-width: 1.3"/>
    </defs>
    <g clip-path="url(#pf0e8687a6e)">
     <use xlink:href="#mdcf9a26a49" x="431.744395" y="324.365657" style="fill: #ffffff; stroke: #16718b; stroke-width: 1.3"/>
    </g>
   </g>
   <g id="PathCollection_2">
    <defs>
     <path id="m7cf84a0eb8" d="M 0 2.397916 
C 0.635935 2.397916 1.245909 2.145256 1.695582 1.695582 
C 2.145256 1.245909 2.397916 0.635935 2.397916 0 
C 2.397916 -0.635935 2.145256 -1.245909 1.695582 -1.695582 
C 1.245909 -2.145256 0.635935 -2.397916 0 -2.397916 
C -0.635935 -2.397916 -1.245909 -2.145256 -1.695582 -1.695582 
C -2.145256 -1.245909 -2.397916 -0.635935 -2.397916 0 
C -2.397916 0.635935 -2.145256 1.245909 -1.695582 1.695582 
C -1.245909 2.145256 -0.635935 2.397916 0 2.397916 
z
" style="stroke: #c35b35; stroke-width: 1.3"/>
    </defs>
    <g clip-path="url(#pf0e8687a6e)">
     <use xlink:href="#m7cf84a0eb8" x="444.579552" y="321.727022" style="fill: #ffffff; stroke: #c35b35; stroke-width: 1.3"/>
    </g>
   </g>
   <g id="PathCollection_3">
    <defs>
     <path id="me3744ebd01" d="M 0 -6.020797 
L -1.351753 -1.860529 
L -5.726118 -1.860529 
L -2.187183 0.710659 
L -3.538936 4.870927 
L -0 2.29974 
L 3.538936 4.870927 
L 2.187183 0.710659 
L 5.726118 -1.860529 
L 1.351753 -1.860529 
z
" style="stroke: #ffffff; stroke-width: 0.7"/>
    </defs>
    <g clip-path="url(#pf0e8687a6e)">
     <use xlink:href="#me3744ebd01" x="427.466009" y="325.165568" style="fill: #16718b; stroke: #ffffff; stroke-width: 0.7"/>
    </g>
   </g>
   <g id="PathCollection_4">
    <defs>
     <path id="md2e0cbb9c2" d="M 0 -6.020797 
L -1.351753 -1.860529 
L -5.726118 -1.860529 
L -2.187183 0.710659 
L -3.538936 4.870927 
L -0 2.29974 
L 3.538936 4.870927 
L 2.187183 0.710659 
L 5.726118 -1.860529 
L 1.351753 -1.860529 
z
" style="stroke: #ffffff; stroke-width: 0.7"/>
    </defs>
    <g clip-path="url(#pf0e8687a6e)">
     <use xlink:href="#md2e0cbb9c2" x="427.466009" y="322.797362" style="fill: #c35b35; stroke: #ffffff; stroke-width: 0.7"/>
    </g>
   </g>
  </g>
  <g id="axes_2">
   <g id="patch_5">
    <path d="M 545.977291 340.992 
L 931.032 340.992 
L 931.032 103.896 
L 545.977291 103.896 
z
" style="fill: #ffffff"/>
   </g>
   <g id="matplotlib.axis_3">
    <g id="xtick_6">
     <g id="line2d_20">
      <g>
       <use xlink:href="#mb24050fa32" x="545.977291" y="340.992" style="fill: #52616b; stroke: #52616b; stroke-width: 0.8"/>
      </g>
     </g>
     <g id="text_14">
      <text style="font-size: 10.5px; font-family: 'DejaVu Sans'; text-anchor: middle; fill: #52616b" x="545.977291" y="355.470359" transform="rotate(-0 545.977291 355.470359)">0</text>
     </g>
    </g>
    <g id="xtick_7">
     <g id="line2d_21">
      <g>
       <use xlink:href="#mb24050fa32" x="631.545004" y="340.992" style="fill: #52616b; stroke: #52616b; stroke-width: 0.8"/>
      </g>
     </g>
     <g id="text_15">
      <text style="font-size: 10.5px; font-family: 'DejaVu Sans'; text-anchor: middle; fill: #52616b" x="631.545004" y="355.470359" transform="rotate(-0 631.545004 355.470359)">4,000</text>
     </g>
    </g>
    <g id="xtick_8">
     <g id="line2d_22">
      <g>
       <use xlink:href="#mb24050fa32" x="717.112717" y="340.992" style="fill: #52616b; stroke: #52616b; stroke-width: 0.8"/>
      </g>
     </g>
     <g id="text_16">
      <text style="font-size: 10.5px; font-family: 'DejaVu Sans'; text-anchor: middle; fill: #52616b" x="717.112717" y="355.470359" transform="rotate(-0 717.112717 355.470359)">8,000</text>
     </g>
    </g>
    <g id="xtick_9">
     <g id="line2d_23">
      <g>
       <use xlink:href="#mb24050fa32" x="802.68043" y="340.992" style="fill: #52616b; stroke: #52616b; stroke-width: 0.8"/>
      </g>
     </g>
     <g id="text_17">
      <text style="font-size: 10.5px; font-family: 'DejaVu Sans'; text-anchor: middle; fill: #52616b" x="802.68043" y="355.470359" transform="rotate(-0 802.68043 355.470359)">12,000</text>
     </g>
    </g>
    <g id="xtick_10">
     <g id="line2d_24">
      <g>
       <use xlink:href="#mb24050fa32" x="888.248143" y="340.992" style="fill: #52616b; stroke: #52616b; stroke-width: 0.8"/>
      </g>
     </g>
     <g id="text_18">
      <text style="font-size: 10.5px; font-family: 'DejaVu Sans'; text-anchor: middle; fill: #52616b" x="888.248143" y="355.470359" transform="rotate(-0 888.248143 355.470359)">16,000</text>
     </g>
    </g>
    <g id="text_19">
     <text style="font-size: 10.5px; font-family: 'DejaVu Sans'; text-anchor: middle; fill: #293b46" x="738.504646" y="374.632391" transform="rotate(-0 738.504646 374.632391)">Optimizer updates</text>
    </g>
   </g>
   <g id="matplotlib.axis_4">
    <g id="ytick_6">
     <g id="line2d_25">
      <path d="M 545.977291 340.992 
L 931.032 340.992 
" clip-path="url(#p11f341018c)" style="fill: none; stroke: #e2e8ec; stroke-width: 0.8; stroke-linecap: square"/>
     </g>
     <g id="line2d_26">
      <g>
       <use xlink:href="#m4503fea85f" x="545.977291" y="340.992" style="fill: #52616b; stroke: #52616b; stroke-width: 0.8"/>
      </g>
     </g>
     <g id="text_20">
      <text style="font-size: 10.5px; font-family: 'DejaVu Sans'; text-anchor: end; fill: #52616b" x="539.477291" y="344.98118" transform="rotate(-0 539.477291 344.98118)">0</text>
     </g>
    </g>
    <g id="ytick_7">
     <g id="line2d_27">
      <path d="M 545.977291 281.718 
L 931.032 281.718 
" clip-path="url(#p11f341018c)" style="fill: none; stroke: #e2e8ec; stroke-width: 0.8; stroke-linecap: square"/>
     </g>
     <g id="line2d_28">
      <g>
       <use xlink:href="#m4503fea85f" x="545.977291" y="281.718" style="fill: #52616b; stroke: #52616b; stroke-width: 0.8"/>
      </g>
     </g>
     <g id="text_21">
      <text style="font-size: 10.5px; font-family: 'DejaVu Sans'; text-anchor: end; fill: #52616b" x="539.477291" y="285.70718" transform="rotate(-0 539.477291 285.70718)">10</text>
     </g>
    </g>
    <g id="ytick_8">
     <g id="line2d_29">
      <path d="M 545.977291 222.444 
L 931.032 222.444 
" clip-path="url(#p11f341018c)" style="fill: none; stroke: #e2e8ec; stroke-width: 0.8; stroke-linecap: square"/>
     </g>
     <g id="line2d_30">
      <g>
       <use xlink:href="#m4503fea85f" x="545.977291" y="222.444" style="fill: #52616b; stroke: #52616b; stroke-width: 0.8"/>
      </g>
     </g>
     <g id="text_22">
      <text style="font-size: 10.5px; font-family: 'DejaVu Sans'; text-anchor: end; fill: #52616b" x="539.477291" y="226.43318" transform="rotate(-0 539.477291 226.43318)">20</text>
     </g>
    </g>
    <g id="ytick_9">
     <g id="line2d_31">
      <path d="M 545.977291 163.17 
L 931.032 163.17 
" clip-path="url(#p11f341018c)" style="fill: none; stroke: #e2e8ec; stroke-width: 0.8; stroke-linecap: square"/>
     </g>
     <g id="line2d_32">
      <g>
       <use xlink:href="#m4503fea85f" x="545.977291" y="163.17" style="fill: #52616b; stroke: #52616b; stroke-width: 0.8"/>
      </g>
     </g>
     <g id="text_23">
      <text style="font-size: 10.5px; font-family: 'DejaVu Sans'; text-anchor: end; fill: #52616b" x="539.477291" y="167.15918" transform="rotate(-0 539.477291 167.15918)">30</text>
     </g>
    </g>
    <g id="ytick_10">
     <g id="line2d_33">
      <path d="M 545.977291 103.896 
L 931.032 103.896 
" clip-path="url(#p11f341018c)" style="fill: none; stroke: #e2e8ec; stroke-width: 0.8; stroke-linecap: square"/>
     </g>
     <g id="line2d_34">
      <g>
       <use xlink:href="#m4503fea85f" x="545.977291" y="103.896" style="fill: #52616b; stroke: #52616b; stroke-width: 0.8"/>
      </g>
     </g>
     <g id="text_24">
      <text style="font-size: 10.5px; font-family: 'DejaVu Sans'; text-anchor: end; fill: #52616b" x="539.477291" y="107.88518" transform="rotate(-0 539.477291 107.88518)">40</text>
     </g>
    </g>
    <g id="text_25">
     <text style="font-size: 10.5px; font-family: 'DejaVu Sans'; text-anchor: middle; fill: #293b46" x="519.93237" y="222.444" transform="rotate(-90 519.93237 222.444)">Accuracy (%)</text>
    </g>
   </g>
   <g id="line2d_35">
    <path d="M 905.361686 340.992 
L 905.361686 103.896 
" clip-path="url(#p11f341018c)" style="fill: none; stroke-dasharray: 3,3; stroke-dashoffset: 0; stroke: #16718b; stroke-opacity: 0.65"/>
   </g>
   <g id="line2d_36">
    <path d="M 918.196843 340.992 
L 918.196843 103.896 
" clip-path="url(#p11f341018c)" style="fill: none; stroke-dasharray: 3,3; stroke-dashoffset: 0; stroke: #c35b35; stroke-opacity: 0.65"/>
   </g>
   <g id="patch_6">
    <path d="M 545.977291 340.992 
L 545.977291 103.896 
" style="fill: none; stroke: #84929a; stroke-width: 0.8; stroke-linejoin: miter; stroke-linecap: square"/>
   </g>
   <g id="patch_7">
    <path d="M 545.977291 340.992 
L 931.032 340.992 
" style="fill: none; stroke: #84929a; stroke-width: 0.8; stroke-linejoin: miter; stroke-linecap: square"/>
   </g>
   <g id="line2d_37">
    <path d="M 545.977291 340.450042 
L 548.116484 302.648437 
L 550.255677 278.883557 
L 552.39487 272.325859 
L 554.534063 266.499806 
L 556.673256 256.310986 
L 558.812448 255.904517 
L 560.951641 247.12479 
L 563.090834 240.702582 
L 567.36922 231.137014 
L 569.508413 230.269881 
L 571.647605 227.153619 
L 573.786798 224.552219 
L 575.925991 222.465678 
L 578.065184 216.639625 
L 580.204377 216.287352 
L 582.34357 213.929832 
L 584.482762 214.200811 
L 586.621955 208.07668 
L 588.761148 203.090662 
L 590.900341 200.001499 
L 593.039534 195.692929 
L 595.178726 190.219148 
L 597.082608 196.939433 
L 597.317919 194.717404 
L 599.457112 186.642222 
L 601.596305 190.544323 
L 603.735498 186.452537 
L 605.874691 180.030329 
L 608.013883 181.358127 
L 610.153076 178.865118 
L 612.292269 180.27421 
L 616.570655 175.288192 
L 618.709848 170.410565 
L 620.84904 172.44291 
L 622.710138 168.378221 
L 622.988233 169.299551 
L 625.127426 167.294304 
L 627.266619 171.846755 
L 629.405812 165.424547 
L 631.545004 165.885212 
L 633.684197 169.543432 
L 635.82339 160.926292 
L 640.101776 160.682411 
L 642.240969 166.020702 
L 644.380161 162.010209 
L 646.519354 157.403562 
L 648.294884 157.132582 
L 648.658547 153.935027 
L 650.79774 155.642197 
L 652.936933 154.829259 
L 655.076126 151.469116 
L 657.215318 152.688523 
L 659.354511 154.124713 
L 661.493704 153.664048 
L 663.632897 150.872962 
L 665.77209 153.230481 
L 667.911283 149.97873 
L 670.050475 150.168416 
L 672.189668 154.016321 
L 673.858239 148.786422 
L 674.328861 150.818766 
L 676.468054 149.707751 
L 678.607247 151.252333 
L 680.746439 146.293413 
L 682.885632 147.919288 
L 685.024825 143.529424 
L 687.164018 142.608095 
L 689.303211 146.347608 
L 691.442404 146.076629 
L 693.581596 142.906172 
L 695.720789 146.401804 
L 697.859982 144.477852 
L 699.421593 142.879074 
L 699.999175 139.9254 
L 702.138368 141.984843 
L 704.277561 138.705994 
L 706.416753 140.223478 
L 708.555946 141.307395 
L 710.695139 137.296902 
L 712.834332 139.789911 
L 714.973525 138.082742 
L 717.112717 137.080118 
L 719.25191 138.570504 
L 721.391103 136.809139 
L 723.530296 135.88781 
L 725.049123 138.462112 
L 725.669489 136.782041 
L 727.808682 133.855465 
L 729.947874 139.004071 
L 732.087067 136.077495 
L 734.22626 133.774172 
L 738.504646 134.478718 
L 740.643839 135.562635 
L 742.783031 135.047774 
L 744.922224 136.375572 
L 747.061417 131.525044 
L 749.20061 131.389554 
L 750.548301 132.934136 
L 751.339803 134.505815 
L 753.478996 130.7934 
L 755.618188 133.448996 
L 757.757381 134.099347 
L 759.896574 133.828367 
L 762.035767 131.931513 
L 764.17496 134.207738 
L 766.314152 135.400047 
L 768.453345 132.74445 
L 770.592538 132.148296 
L 772.731731 133.936759 
L 774.870924 129.844972 
L 776.282791 129.601091 
L 777.010117 130.468225 
L 779.149309 132.22959 
L 781.288502 129.926266 
L 783.427695 129.844972 
L 785.566888 132.0941 
L 787.706081 133.557388 
L 789.845274 129.953364 
L 791.984466 129.35721 
L 794.123659 131.741827 
L 796.262852 129.790777 
L 798.402045 126.105459 
L 800.541238 129.35721 
L 801.974497 126.728711 
L 802.68043 129.194622 
L 804.819623 126.918397 
L 806.958816 130.820498 
L 809.098009 128.43588 
L 811.237202 127.839726 
L 813.376395 128.923643 
L 815.515587 128.408782 
L 817.65478 127.026788 
L 819.793973 128.70686 
L 821.933166 127.080984 
L 826.211552 127.108082 
L 827.516459 126.024165 
L 828.350744 126.105459 
L 830.489937 129.086231 
L 832.62913 127.839726 
L 834.768323 127.216474 
L 836.907516 128.896545 
L 839.046709 126.322242 
L 841.185901 125.671892 
L 843.325094 129.763679 
L 845.464287 127.568747 
L 847.60348 126.268046 
L 849.742673 123.883429 
L 851.881865 124.587975 
L 853.079813 126.566124 
L 854.021058 123.720842 
L 856.160251 127.189376 
L 858.299444 130.170148 
L 860.438637 127.351963 
L 862.57783 130.766302 
L 864.717022 125.942871 
L 866.856215 126.593222 
L 868.995408 126.593222 
L 871.134601 123.449862 
L 875.412987 127.677139 
L 878.66456 122.338847 
L 879.691372 125.455109 
L 881.830565 125.617696 
L 883.969758 126.539026 
L 886.108951 128.219097 
L 888.248143 125.184129 
L 890.387336 125.888676 
L 892.526529 127.13518 
L 894.665722 127.460355 
L 896.804915 128.137803 
L 898.944108 125.726088 
L 901.0833 125.428011 
L 903.222493 125.617696 
L 904.441833 125.075738 
L 905.361686 124.181506 
L 905.361686 124.181506 
" clip-path="url(#p11f341018c)" style="fill: none; stroke: #16718b; stroke-opacity: 0.96; stroke-width: 1.8; stroke-linecap: square"/>
   </g>
   <g id="line2d_38">
    <path d="M 545.977291 340.639727 
L 548.116484 290.915036 
L 550.255677 285.061884 
L 552.39487 278.802263 
L 554.534063 272.027782 
L 556.673256 270.727082 
L 558.812448 262.272529 
L 560.951641 255.985811 
L 565.230027 244.360801 
L 567.36922 239.374783 
L 569.508413 238.345062 
L 571.562038 239.212196 
L 571.647605 237.07146 
L 573.786798 237.288243 
L 575.925991 229.538237 
L 578.065184 226.340682 
L 580.204377 223.820575 
L 582.34357 219.999767 
L 584.482762 222.655364 
L 586.621955 216.422841 
L 588.761148 217.560954 
L 590.900341 212.331055 
L 593.039534 215.989274 
L 595.178726 205.014615 
L 597.082608 209.78385 
L 597.317919 209.214793 
L 599.457112 203.497131 
L 601.596305 201.762864 
L 603.735498 203.415837 
L 605.874691 197.589784 
L 608.013883 198.267232 
L 610.153076 195.909712 
L 612.292269 194.202543 
L 614.431462 188.349391 
L 616.570655 196.126496 
L 618.709848 188.728762 
L 620.84904 187.428062 
L 622.710138 182.956904 
L 622.988233 183.959528 
L 625.127426 181.872987 
L 627.266619 184.284703 
L 629.405812 182.198163 
L 631.545004 182.143967 
L 633.684197 181.087148 
L 635.82339 177.645711 
L 637.962583 172.903574 
L 640.101776 175.125604 
L 642.240969 176.914067 
L 644.380161 170.573153 
L 646.519354 171.331895 
L 648.294884 169.001473 
L 648.658547 168.947277 
L 650.79774 169.976999 
L 652.936933 168.053046 
L 655.076126 165.26196 
L 657.215318 165.099372 
L 659.354511 166.887835 
L 661.493704 164.503218 
L 663.632897 164.259337 
L 665.77209 162.823147 
L 667.911283 162.579265 
L 670.050475 162.118601 
L 672.189668 164.178043 
L 673.858239 160.113354 
L 674.328861 161.305663 
L 676.468054 161.657936 
L 678.607247 162.985734 
L 680.746439 156.753211 
L 682.885632 163.17542 
L 685.024825 164.665805 
L 687.164018 158.189401 
L 689.303211 155.72349 
L 691.442404 158.677164 
L 693.581596 154.775063 
L 695.720789 155.886078 
L 697.859982 157.620345 
L 699.421593 156.888701 
L 699.999175 153.664048 
L 702.138368 151.469116 
L 704.277561 151.956879 
L 706.416753 152.038173 
L 708.555946 151.523312 
L 710.695139 149.843241 
L 712.834332 151.469116 
L 714.973525 151.712998 
L 717.112717 148.136072 
L 719.25191 152.363348 
L 721.391103 147.919288 
L 723.530296 147.973484 
L 725.049123 146.808273 
L 725.669489 148.352855 
L 727.808682 147.268938 
L 729.947874 149.192891 
L 732.087067 149.219988 
L 734.22626 146.916665 
L 736.365453 148.515442 
L 738.504646 148.434149 
L 740.643839 148.81352 
L 742.783031 144.206872 
L 744.922224 148.325757 
L 747.061417 144.23397 
L 749.20061 143.908795 
L 750.548301 142.553899 
L 751.339803 143.71911 
L 753.478996 142.689389 
L 755.618188 145.046908 
L 757.757381 142.879074 
L 759.896574 142.906172 
L 762.035767 143.502326 
L 764.17496 142.79778 
L 766.314152 143.610718 
L 768.453345 143.06876 
L 770.592538 140.521555 
L 772.731731 141.226101 
L 774.870924 140.331869 
L 776.282791 140.467359 
L 777.010117 141.090611 
L 779.149309 143.692012 
L 781.288502 141.253199 
L 783.427695 141.171905 
L 785.566888 138.76019 
L 787.706081 142.526801 
L 789.845274 140.440261 
L 791.984466 139.979596 
L 794.123659 138.380819 
L 796.262852 141.334492 
L 798.402045 137.378195 
L 800.541238 137.215608 
L 801.974497 135.914908 
L 802.68043 138.028546 
L 804.819623 139.356344 
L 806.958816 138.6247 
L 809.098009 138.922777 
L 811.237202 137.18851 
L 813.376395 138.949875 
L 815.515587 135.942005 
L 817.65478 139.004071 
L 819.793973 138.245329 
L 821.933166 137.324 
L 824.072359 135.969103 
L 826.211552 135.914908 
L 827.516459 133.828367 
L 828.350744 135.996201 
L 830.489937 138.001448 
L 832.62913 134.397424 
L 834.768323 134.858089 
L 836.907516 134.153542 
L 839.046709 133.936759 
L 841.185901 134.424522 
L 843.325094 135.481341 
L 847.60348 133.503192 
L 849.742673 135.806516 
L 851.881865 133.259311 
L 853.079813 134.695501 
L 854.021058 132.690255 
L 856.160251 134.289032 
L 858.299444 134.424522 
L 860.438637 133.692878 
L 862.57783 137.05302 
L 864.717022 133.01543 
L 866.856215 133.53029 
L 868.995408 133.774172 
L 871.134601 132.22959 
L 873.273794 133.638682 
L 875.412987 135.833614 
L 877.552179 131.497946 
L 878.66456 131.118575 
L 879.691372 131.470848 
L 881.830565 132.717352 
L 883.969758 131.660533 
L 886.108951 135.291655 
L 888.248143 131.687631 
L 890.387336 131.497946 
L 892.526529 134.072249 
L 894.665722 131.985709 
L 896.804915 133.476094 
L 898.944108 132.907038 
L 901.0833 130.739204 
L 903.222493 132.419275 
L 905.361686 131.552142 
L 907.500879 131.199869 
L 909.640072 132.148296 
L 911.779265 135.725222 
L 913.918457 134.505815 
L 916.05765 135.10197 
L 918.196843 132.907038 
L 918.196843 132.907038 
" clip-path="url(#p11f341018c)" style="fill: none; stroke: #c35b35; stroke-opacity: 0.96; stroke-width: 1.8; stroke-linecap: square"/>
   </g>
   <g id="text_26">
    <text style="font-weight: 600; font-size: 12px; font-family: 'DejaVu Sans'; text-anchor: start; fill: #263945" x="545.977291" y="90.896" transform="rotate(-0 545.977291 90.896)">Next-token accuracy ↑</text>
   </g>
   <g id="PathCollection_5">
    <g clip-path="url(#p11f341018c)">
     <use xlink:href="#mdcf9a26a49" x="905.361686" y="124.181506" style="fill: #ffffff; stroke: #16718b; stroke-width: 1.3"/>
    </g>
   </g>
   <g id="PathCollection_6">
    <g clip-path="url(#p11f341018c)">
     <use xlink:href="#m7cf84a0eb8" x="918.196843" y="132.907038" style="fill: #ffffff; stroke: #c35b35; stroke-width: 1.3"/>
    </g>
   </g>
   <g id="PathCollection_7">
    <g clip-path="url(#p11f341018c)">
     <use xlink:href="#me3744ebd01" x="878.66456" y="122.338847" style="fill: #16718b; stroke: #ffffff; stroke-width: 0.7"/>
    </g>
   </g>
   <g id="PathCollection_8">
    <g clip-path="url(#p11f341018c)">
     <use xlink:href="#md2e0cbb9c2" x="901.0833" y="130.739204" style="fill: #c35b35; stroke: #ffffff; stroke-width: 0.7"/>
    </g>
   </g>
  </g>
  <g id="axes_3">
   <g id="table_1">
    <g id="patch_8">
     <path d="M 72.36 424.1088 
L 226.92096 424.1088 
L 226.92096 400.1328 
L 72.36 400.1328 
z
" style="fill: #eaf0f3; stroke: #ffffff; stroke-width: 2; stroke-linejoin: miter"/>
    </g>
    <g id="text_27">
     <text style="font-weight: 600; font-size: 10.5px; font-family: 'DejaVu Sans'; text-anchor: start; fill: #405460" x="87.816096" y="415.018144" transform="rotate(-0 87.816096 415.018144)">Model</text>
    </g>
    <g id="patch_9">
     <path d="M 226.92096 424.1088 
L 484.52256 424.1088 
L 484.52256 400.1328 
L 226.92096 400.1328 
z
" style="fill: #eaf0f3; stroke: #ffffff; stroke-width: 2; stroke-linejoin: miter"/>
    </g>
    <g id="text_28">
     <text style="font-weight: 600; font-size: 10.5px; font-family: 'DejaVu Sans'; text-anchor: start; fill: #405460" x="252.68112" y="415.018144" transform="rotate(-0 252.68112 415.018144)">Lowest CE (update)</text>
    </g>
    <g id="patch_10">
     <path d="M 484.52256 424.1088 
L 759.2976 424.1088 
L 759.2976 400.1328 
L 484.52256 400.1328 
z
" style="fill: #eaf0f3; stroke: #ffffff; stroke-width: 2; stroke-linejoin: miter"/>
    </g>
    <g id="text_29">
     <text style="font-weight: 600; font-size: 10.5px; font-family: 'DejaVu Sans'; text-anchor: start; fill: #405460" x="512.000064" y="414.977128" transform="rotate(-0 512.000064 414.977128)">Highest accuracy (update)</text>
    </g>
    <g id="patch_11">
     <path d="M 759.2976 424.1088 
L 931.032 424.1088 
L 931.032 400.1328 
L 759.2976 400.1328 
z
" style="fill: #eaf0f3; stroke: #ffffff; stroke-width: 2; stroke-linejoin: miter"/>
    </g>
    <g id="text_30">
     <text style="font-weight: 600; font-size: 10.5px; font-family: 'DejaVu Sans'; text-anchor: start; fill: #405460" x="776.47104" y="415.018144" transform="rotate(-0 776.47104 415.018144)">Durable stop</text>
    </g>
    <g id="patch_12">
     <path d="M 72.36 448.0848 
L 226.92096 448.0848 
L 226.92096 424.1088 
L 72.36 424.1088 
z
" style="fill: #f4f7f9; stroke: #ffffff; stroke-width: 2; stroke-linejoin: miter"/>
    </g>
    <g id="text_31">
     <text style="font-weight: 600; font-size: 10.5px; font-family: 'DejaVu Sans'; text-anchor: start; fill: #16718b" x="87.816096" y="438.994144" transform="rotate(-0 87.816096 438.994144)">G · rank 64</text>
    </g>
    <g id="patch_13">
     <path d="M 226.92096 448.0848 
L 484.52256 448.0848 
L 484.52256 424.1088 
L 226.92096 424.1088 
z
" style="fill: #f4f7f9; stroke: #ffffff; stroke-width: 2; stroke-linejoin: miter"/>
    </g>
    <g id="text_32">
     <text style="font-size: 10.5px; font-family: 'DejaVu Sans'; text-anchor: start; fill: #263945" x="252.68112" y="438.994144" transform="rotate(-0 252.68112 438.994144)">3.093705  (16,600)</text>
    </g>
    <g id="patch_14">
     <path d="M 484.52256 448.0848 
L 759.2976 448.0848 
L 759.2976 424.1088 
L 484.52256 424.1088 
z
" style="fill: #f4f7f9; stroke: #ffffff; stroke-width: 2; stroke-linejoin: miter"/>
    </g>
    <g id="text_33">
     <text style="font-size: 10.5px; font-family: 'DejaVu Sans'; text-anchor: start; fill: #263945" x="512.000064" y="438.994144" transform="rotate(-0 512.000064 438.994144)">36.8885%  (15,552)</text>
    </g>
    <g id="patch_15">
     <path d="M 759.2976 448.0848 
L 931.032 448.0848 
L 931.032 424.1088 
L 759.2976 424.1088 
z
" style="fill: #f4f7f9; stroke: #ffffff; stroke-width: 2; stroke-linejoin: miter"/>
    </g>
    <g id="text_34">
     <text style="font-size: 10.5px; font-family: 'DejaVu Sans'; text-anchor: start; fill: #263945" x="776.47104" y="438.994144" transform="rotate(-0 776.47104 438.994144)">16,800</text>
    </g>
    <g id="patch_16">
     <path d="M 72.36 472.0608 
L 226.92096 472.0608 
L 226.92096 448.0848 
L 72.36 448.0848 
z
" style="fill: #faf5f1; stroke: #ffffff; stroke-width: 2; stroke-linejoin: miter"/>
    </g>
    <g id="text_35">
     <text style="font-weight: 600; font-size: 10.5px; font-family: 'DejaVu Sans'; text-anchor: start; fill: #c35b35" x="87.816096" y="462.970144" transform="rotate(-0 87.816096 462.970144)">H · rank 32</text>
    </g>
    <g id="patch_17">
     <path d="M 226.92096 472.0608 
L 484.52256 472.0608 
L 484.52256 448.0848 
L 226.92096 448.0848 
z
" style="fill: #faf5f1; stroke: #ffffff; stroke-width: 2; stroke-linejoin: miter"/>
    </g>
    <g id="text_36">
     <text style="font-size: 10.5px; font-family: 'DejaVu Sans'; text-anchor: start; fill: #263945" x="252.68112" y="462.970144" transform="rotate(-0 252.68112 462.970144)">3.137654  (16,600)</text>
    </g>
    <g id="patch_18">
     <path d="M 484.52256 472.0608 
L 759.2976 472.0608 
L 759.2976 448.0848 
L 484.52256 448.0848 
z
" style="fill: #faf5f1; stroke: #ffffff; stroke-width: 2; stroke-linejoin: miter"/>
    </g>
    <g id="text_37">
     <text style="font-size: 10.5px; font-family: 'DejaVu Sans'; text-anchor: start; fill: #263945" x="512.000064" y="462.970144" transform="rotate(-0 512.000064 462.970144)">35.4713%  (16,600)</text>
    </g>
    <g id="patch_19">
     <path d="M 759.2976 472.0608 
L 931.032 472.0608 
L 931.032 448.0848 
L 759.2976 448.0848 
z
" style="fill: #faf5f1; stroke: #ffffff; stroke-width: 2; stroke-linejoin: miter"/>
    </g>
    <g id="text_38">
     <text style="font-size: 10.5px; font-family: 'DejaVu Sans'; text-anchor: start; fill: #263945" x="776.47104" y="462.970144" transform="rotate(-0 776.47104 462.970144)">17,400</text>
    </g>
   </g>
  </g>
  <g id="text_39">
   <text style="font-weight: 600; font-size: 17px; font-family: 'DejaVu Sans'; text-anchor: start; fill: #263945" x="72.36" y="24.638944" transform="rotate(-0 72.36 24.638944)">Rank 32 versus rank 64: validation over the full training run</text>
  </g>
  <g id="text_40">
   <text style="font-size: 10.8px; font-family: 'DejaVu Sans'; text-anchor: start; fill: #596b77" x="72.36" y="37.8288" transform="rotate(-0 72.36 37.8288)">Same encoder width and full modeled connectome · independently retained checkpoints · accepted early stops</text>
  </g>
  <g id="text_41">
   <text style="font-weight: 600; font-size: 11px; font-family: 'DejaVu Sans'; text-anchor: start; fill: #263945" x="72.36" y="385.7472" transform="rotate(-0 72.36 385.7472)">Retained winners and durable stopping points</text>
  </g>
  <g id="text_42">
   <text style="font-size: 9.5px; font-family: 'DejaVu Sans'; text-anchor: end; fill: #596b77" x="931.032" y="385.7472" transform="rotate(-0 931.032 385.7472)">★ = selector winner   ·   dashed line / open circle = stop</text>
  </g>
  <g id="text_43">
   <text style="font-size: 9px; font-family: 'DejaVu Sans'; text-anchor: start; fill: #596b77" x="72.36" y="500.2992" transform="rotate(-0 72.36 500.2992)">100 validation stories · 21,874 next-BPE-token targets · seed 42 · all evaluations shown without smoothing</text>
  </g>
  <g id="text_44">
   <text style="font-size: 9px; font-family: 'DejaVu Sans'; text-anchor: start; fill: #596b77" x="72.36" y="515.2176" transform="rotate(-0 72.36 515.2176)">Checkpoints were selected on this validation set. Stop budgets differ; rank also changes initialization scale. No reserved-test scores.</text>
  </g>
  <g id="legend_1">
   <g id="line2d_39">
    <path d="M 76.4712 62.360281 
L 90.2212 62.360281 
L 103.9712 62.360281 
" style="fill: none; stroke: #16718b; stroke-width: 2.5; stroke-linecap: square"/>
   </g>
   <g id="text_45">
    <text style="font-size: 11px; font-family: 'DejaVu Sans'; text-anchor: start; fill: #263945" x="112.7712" y="66.210281" transform="rotate(-0 112.7712 66.210281)">G · rank 64 · 3.23M readout</text>
   </g>
   <g id="line2d_40">
    <path d="M 292.127919 62.360281 
L 305.877919 62.360281 
L 319.627919 62.360281 
" style="fill: none; stroke: #c35b35; stroke-width: 2.5; stroke-linecap: square"/>
   </g>
   <g id="text_46">
    <text style="font-size: 11px; font-family: 'DejaVu Sans'; text-anchor: start; fill: #263945" x="328.427919" y="66.210281" transform="rotate(-0 328.427919 66.210281)">H · rank 32 · 1.61M readout</text>
   </g>
  </g>
 </g>
 <defs>
  <clipPath id="pf0e8687a6e">
   <rect x="72.36" y="103.896" width="385.054709" height="237.096"/>
  </clipPath>
  <clipPath id="p11f341018c">
   <rect x="545.977291" y="103.896" width="385.054709" height="237.096"/>
  </clipPath>
 </defs>
</svg>
